<?xml version="1.0" encoding="utf-8"?>
<!-- Generator: Adobe Illustrator 23.0.4, SVG Export Plug-In . SVG Version: 6.00 Build 0)  -->
<svg version="1.1" id="Layer_1" xmlns="http://www.w3.org/2000/svg" xmlns:xlink="http://www.w3.org/1999/xlink" x="0px" y="0px"
	 viewBox="0 0 334 352" style="enable-background:new 0 0 334 352;" xml:space="preserve">
<style type="text/css">
	.st0{fill:#E71B45;}
	.st1{fill:#FFFFFF;}
	.st2{fill:#F17DA0;}
</style>
<g>
	<g>
		<circle class="st0" cx="167" cy="176" r="158.8"/>
	</g>
	<g>
		<path class="st1" d="M185.8,154.7c0-20.2-5.5-39-15.1-55.2h-45.5c15.5,13.4,25.3,33.1,25.3,55.2c0,40.1-32.5,72.7-72.6,72.8
			l0,35.3C137.5,262.7,185.8,214.3,185.8,154.7z"/>
		<path class="st2" d="M185.8,154.7c0,16.4-3.7,32-10.2,46c-7.1-11.6-16.1-22-26.7-30.6c1.1-4.9,1.6-10.1,1.6-15.3
			c0-22.1-9.8-41.8-25.3-55.2h45.5C180.3,115.7,185.8,134.5,185.8,154.7z"/>
		<path class="st1" d="M192.7,124.5c-18-15.6-39.1-27.7-62.2-35.3H77.9v30.7c10.9,0.4,21.4,1.9,31.6,4.6
			c61.4,16.1,106.7,71.9,106.8,138.3h39.8C256,207.5,231.5,158,192.7,124.5z"/>
		<rect x="77.9" y="89.2" class="st1" width="178.1" height="35.3"/>
	</g>
</g>
</svg>
